# xmcd CD database file
# Copyright (C) 1993-1999 CDDB, Inc.
#
# Track frame offsets:
#	150
#	22365
#	43540
#	62899
#	79287
#	102245
#	120710
#	141053
#	162482
#	179756
#	201466
#	224857
#
# Disc length: 3312
#
# Revision: 1
# Processed by: cddbd v1.5.2PL0 Copyright (c) Steve Scherf et al.
# Submitted via: CoolCD_Studio 1.4
#
DISCID=c50cee0c
DTITLE=The Jimmy Rogers All-Stars - Blues Blues Blues
DYEAR=1900
DGENRE=
TTITLE0=Blow Wind Blow
TTITLE1=Blues All Day Long
TTITLE2=Trouble No More
TTITLE3=Bright Lights Big City
TTITLE4=Every Day I Have The Blues
TTITLE5=Sweet Home Chicago
TTITLE6=Don't Start Me Talkin'
TTITLE7=That's All Right
TTITLE8=Ludella
TTITLE9=Goin' Away Baby
TTITLE10=Worried Life Blues
TTITLE11=Gonna Shoot You Right Down
EXTD=
EXTT0=
EXTT1=
EXTT2=
EXTT3=
EXTT4=
EXTT5=
EXTT6=
EXTT7=
EXTT8=
EXTT9=
EXTT10=
EXTT11=
PLAYORDER=
